# xmcd
#
# Track frame offsets: 
#        150
#        11093
#        26610
#        45587
#        64390
#        84645
#        101132
#        115753
#        128883
#        140153
#        151531
#        162558
#        182463
#        203101
#        230299
#
# Disc length: 3408 seconds
#
# Revision: 0
# Processed by: cddbd v1.5.2PL0 Copyright (c) Steve Scherf et al.
# Submitted via: ExactAudioCopy v1.3
#
DISCID=c70d4e0f
DTITLE=Keito Saito - Piano Blues and Boogie Woogie
DYEAR=2018
DGENRE=Blues
TTITLE0=Answer To The Boogie
TTITLE1=Pinetop's Boogie Woogie
TTITLE2=After Hours
TTITLE3=State Street Jive ~ Cow Cow Blues
TTITLE4=Suitcase Blues
TTITLE5=At The Window
TTITLE6=St. Louis Blues
TTITLE7=Black Fantasy
TTITLE8=How Long Blues
TTITLE9=Just For You
TTITLE10=Freight Train Blues
TTITLE11=Freight Train Boogie Woogie
TTITLE12=Lonesome Blues
TTITLE13=A Left Hand Like God
TTITLE14=Life Goes On
EXTD=
EXTT0=
EXTT1=
EXTT2=
EXTT3=
EXTT4=
EXTT5=
EXTT6=
EXTT7=
EXTT8=
EXTT9=
EXTT10=
EXTT11=
EXTT12=
EXTT13=
EXTT14=
PLAYORDER=
